PathFileType	4	(X/Y/Z)	./resultDataOpenSim/trcMotMarkerGrf/sub06/qtm-13-03.trc
DataRate	CameraRate	NumFrames	NumMarkers	Units	OrigDataRate	OrigDataStartFrame	OrigNumFrames
250.000000	250.000000	6	24	m	250.000000	411	547
Frame#	Time	L.Toe.Tip			R.Toe.Tip			L.Ankle.Lat			R.Ankle.Lat			L.Ankle.Med			R.Ankle.Med			L.Heel			R.Heel			L.Knee.Lat			R.Knee.Lat			L.Knee.Med			R.Knee.Med			L.Thigh.Upper			R.Thigh.Upper			L.ASIS			R.ASIS			V.Sacral			L.Acromium			R.Acromium			C7			L.Elbow			R.Elbow			L.Wrist.Lat			R.Wrist.Lat
		X1	Y1	Z1	X2	Y2	Z2	X3	Y3	Z3	X4	Y4	Z4	X5	Y5	Z5	X6	Y6	Z6	X7	Y7	Z7	X8	Y8	Z8	X9	Y9	Z9	X10	Y10	Z10	X11	Y11	Z11	X12	Y12	Z12	X13	Y13	Z13	X14	Y14	Z14	X15	Y15	Z15	X16	Y16	Z16	X17	Y17	Z17	X18	Y18	Z18	X19	Y19	Z19	X20	Y20	Z20	X21	Y21	Z21	X22	Y22	Z22	X23	Y23	Z23	X24	Y24	Z24

411	1.64	1.6519695	0.11786563	-0.10400501	0.93914551	0.035406855	0.075184412	1.5303001	0.089975216	-0.12496686	0.83226954	0.11321936	0.10443006	1.525176	0.10367898	-0.040963564	0.85687609	0.12407268	0.017086932	1.4791525	0.027545809	-0.081495418	0.77277731	0.11968399	0.047333895	1.412831	0.44352665	-0.12433667	1.0837323	0.41928914	0.12073772	1.3835791	0.43125525	-0.0028842311	1.0581096	0.42032882	-0.0077058148	1.2357171	0.78895333	-0.17702692	1.1503491	0.77741481	0.16782778	1.2949385	0.83795001	-0.12124356	1.2725146	0.83022956	0.12729796	1.0956126	0.89825704	-0.0084707272	1.1739887	1.3141423	-0.18843169	1.2103901	1.3027871	0.1704486	1.114811	1.3422494	-0.00080721172	1.0400157	1.038482	-0.22056796	1.2750807	0.98308361	0.2550677	1.0491677	0.81532553	-0.31429289	1.4876616	1.0335126	0.13159943
412	1.644	1.6542589	0.1134456	-0.10302415	0.9395463	0.035442906	0.075412233	1.5325115	0.086670712	-0.12467722	0.83464734	0.11541912	0.10500343	1.5272823	0.10046047	-0.040691494	0.8594426	0.12601495	0.017750553	1.4800509	0.025339993	-0.081674475	0.77540491	0.12319972	0.047843193	1.4194382	0.44294104	-0.12437177	1.0905506	0.41815502	0.12077232	1.3901741	0.43070946	-0.0032454525	1.0647996	0.4191819	-0.0075375586	1.242718	0.78822584	-0.17772735	1.1570767	0.77614302	0.16598424	1.3020253	0.83701904	-0.12173619	1.2791963	0.8292197	0.1268088	1.1024068	0.89721697	-0.0092721523	1.1801554	1.3131135	-0.18940839	1.2163568	1.3017978	0.16950202	1.1209158	1.3410485	-0.001873814	1.045886	1.0376164	-0.2208575	1.2799559	0.98188955	0.25437944	1.053983	0.81484724	-0.31536402	1.4927546	1.0313277	0.13082903
413	1.648	1.6563593	0.10851347	-0.10211485	0.93997826	0.035466946	0.075659191	1.5343175	0.083271526	-0.12446258	0.83714033	0.11770258	0.10555073	1.5290806	0.097221332	-0.04038906	0.86224376	0.12801719	0.018413594	1.4804011	0.023666843	-0.081833436	0.7783243	0.12683838	0.048252399	1.426064	0.44240371	-0.12443614	1.0974342	0.41697832	0.12088868	1.3967835	0.43013179	-0.003609839	1.0716765	0.41794945	-0.0073094995	1.2497996	0.78750863	-0.17836464	1.164486	0.77442783	0.16392141	1.3091706	0.83613677	-0.12224005	1.2859292	0.82821822	0.12630172	1.1092708	0.89617484	-0.010100235	1.1863374	1.3121193	-0.19038546	1.2223197	1.3008288	0.16852581	1.1270359	1.3398386	-0.0029564225	1.0518447	1.0367443	-0.22119198	1.2845352	0.98073299	0.25375116	1.0590268	0.81431739	-0.31636947	1.4978122	1.0290232	0.13010933
414	1.652	1.6587689	0.10277818	-0.10134715	0.94043768	0.035486106	0.075920443	1.5359643	0.08005354	-0.12435264	0.83973377	0.12006774	0.10606362	1.5309211	0.094219695	-0.040061563	0.86529986	0.13007021	0.019076344	1.480689	0.022833872	-0.081783573	0.78156022	0.13060301	0.048543246	1.4326777	0.44187353	-0.12452349	1.1045792	0.41573208	0.12114947	1.4034125	0.42948387	-0.0039613416	1.0787707	0.41661199	-0.0070022389	1.2569887	0.78677603	-0.17893961	1.1721107	0.77254174	0.16221013	1.3163643	0.83530953	-0.12273516	1.2927091	0.82722507	0.12577624	1.1161744	0.89515046	-0.010960337	1.1925337	1.3111565	-0.19135729	1.2282757	1.2998786	0.1675176	1.1331495	1.3386413	-0.0040664066	1.0578953	1.0358639	-0.22155957	1.2888566	0.97962243	0.25317551	1.0643053	0.81373067	-0.31731976	1.5028471	1.0266065	0.12943899
415	1.656	1.6620549	0.096073372	-0.10093393	0.94090095	0.035507201	0.076177445	1.5378937	0.07741231	-0.12431943	0.84246282	0.1225146	0.1065474	1.5333897	0.091774452	-0.039757999	0.86863872	0.13216161	0.019752765	1.4814616	0.023080412	-0.081410122	0.78511737	0.13450538	0.048741281	1.4391938	0.44130827	-0.12461375	1.1120632	0.41439833	0.12158759	1.4100866	0.42872968	-0.004288474	1.0861042	0.41515543	-0.0066096543	1.2642981	0.78600633	-0.17947871	1.1804957	0.770746	0.16124732	1.3235805	0.8345506	-0.1232034	1.2995139	0.8262393	0.1252307	1.1230666	0.8941798	-0.011813231	1.1987476	1.3102213	-0.19232931	1.2342261	1.2989452	0.16648154	1.1392331	1.3374884	-0.005214513	1.0640362	1.0349724	-0.22194859	1.2930917	0.97854232	0.25261685	1.0698315	0.81308514	-0.31822518	1.5078639	1.0240699	0.12882218
416	1.66	1.6664861	0.088753286	-0.10116087	0.94132997	0.035533507	0.076405328	1.540621	0.075645214	-0.12426561	0.84538359	0.12504694	0.1070254	1.5370208	0.090064573	-0.039554548	0.87229107	0.13427833	0.020469895	1.4830492	0.024383911	-0.080818562	0.7889765	0.13857314	0.04893205	1.4455282	0.44067802	-0.12468846	1.1197967	0.41297845	0.1221428	1.416815	0.42784469	-0.0045993731	1.0936896	0.41357351	-0.0061400522	1.2717192	0.78521465	-0.18002453	1.1907193	0.76911597	0.16108059	1.3307866	0.83387783	-0.12363636	1.3062891	0.82526583	0.12464856	1.1298885	0.89330428	-0.01260954	1.2049902	1.309314	-0.19331832	1.2401661	1.2980362	0.1654258	1.1452793	1.33642	-0.0064055315	1.0702639	1.0340676	-0.22235839	1.2974135	0.97746679	0.25203827	1.0756211	0.81238042	-0.31909648	1.5128483	1.0213973	0.12826955
